<svg width="84" height="84" viewBox="0 0 84 84" fill="none" xmlns="http://www.w3.org/2000/svg">
<g clip-path="url(#clip0_5_432)">
<path d="M9.46641 31.6641L11.0086 34.3547C12.3703 36.7336 14.6016 38.4891 17.243 39.2437L26.7422 41.9508C29.5641 42.7547 31.5 45.3305 31.5 48.2672V54.8133C31.5 56.618 32.5172 58.2586 34.125 59.0625C35.7328 59.8664 36.75 61.507 36.75 63.3117V69.7102C36.75 72.2695 39.1945 74.1234 41.6555 73.418C44.2969 72.6633 46.3477 70.5469 47.0203 67.8727L47.4797 66.0352C48.1687 63.2625 49.9734 60.8836 52.4508 59.4727L53.7797 58.718C56.2406 57.3234 57.75 54.6984 57.75 51.8766V50.5148C57.75 48.4312 56.9133 46.4297 55.4367 44.9531L54.7969 44.3133C53.3203 42.8367 51.3188 42 49.2352 42H42.1641C40.343 42 38.5383 41.5242 36.9469 40.6219L31.2867 37.3898C30.5812 36.9797 30.0398 36.3234 29.7773 35.5523C29.2523 33.9773 29.9578 32.2711 31.4508 31.5328L32.4188 31.0406C33.5016 30.4992 34.7648 30.4008 35.9133 30.7945L39.7195 32.0578C41.0648 32.5008 42.5414 31.9922 43.3125 30.8273C44.0836 29.6789 44.0016 28.1531 43.1156 27.0867L40.8844 24.4125C39.2437 22.4438 39.2602 19.5727 40.9336 17.6367L43.5094 14.6344C44.9531 12.9445 45.1828 10.5328 44.0836 8.61328L43.6898 7.92422C43.1156 7.89141 42.5578 7.875 41.9836 7.875C26.7586 7.875 13.8469 17.8664 9.46641 31.6641ZM76.125 42C76.125 35.9625 74.55 30.2859 71.7938 25.3477L67.5938 27.0375C65.018 28.0711 63.6891 30.9422 64.5586 33.5672L67.3312 41.8852C67.9055 43.5914 69.3 44.8875 71.0391 45.3141L75.8133 46.5117C76.0102 45.0352 76.1086 43.5258 76.1086 42H76.125ZM0 42C0 30.8609 4.42499 20.178 12.3015 12.3015C20.178 4.42499 30.8609 0 42 0C53.1391 0 63.822 4.42499 71.6985 12.3015C79.575 20.178 84 30.8609 84 42C84 53.1391 79.575 63.822 71.6985 71.6985C63.822 79.575 53.1391 84 42 84C30.8609 84 20.178 79.575 12.3015 71.6985C4.42499 63.822 0 53.1391 0 42Z" fill="#248714"/>
</g>
<defs>
<clipPath id="clip0_5_432">
<rect width="84" height="84" fill="white"/>
</clipPath>
</defs>
</svg>
