<svg width="32" height="24" viewBox="0 0 32 24" fill="none" xmlns="http://www.w3.org/2000/svg">
<path d="M5.33333 2.57143C5.33333 1.15179 6.52778 0 8 0H24C25.4722 0 26.6667 1.15179 26.6667 2.57143V18.8571H5.33333V2.57143ZM22.7222 5.08929C22.2 4.58571 21.3556 4.58571 20.8389 5.08929L14.6722 11.0357L12.0611 8.51786C11.5389 8.01429 10.6944 8.01429 10.1778 8.51786C9.66111 9.02143 9.65556 9.83571 10.1778 10.3339L13.7333 13.7625C14.2556 14.2661 15.1 14.2661 15.6167 13.7625L22.7222 6.91071C23.2444 6.40714 23.2444 5.59286 22.7222 5.09464V5.08929ZM0 16.2857C0 14.8661 1.19444 13.7143 2.66667 13.7143H3.55556V20.5714H28.4444V13.7143H29.3333C30.8056 13.7143 32 14.8661 32 16.2857V21.4286C32 22.8482 30.8056 24 29.3333 24H2.66667C1.19444 24 0 22.8482 0 21.4286V16.2857Z" fill="black"/>
</svg>
