<svg width="31" height="24" viewBox="0 0 31 24" fill="none" xmlns="http://www.w3.org/2000/svg">
<path d="M26.6955 11.6576V11.8179L30.1791 8.43266C31.2736 7.36902 31.2736 5.6497 30.1791 4.58606L26.2757 0.797733C25.1811 -0.265911 23.4118 -0.265911 22.3173 0.797733L20.3131 2.74532C20.1781 2.73075 20.0382 2.72104 19.8982 2.72104H14.3005C12.4462 2.72104 10.9218 4.08095 10.7219 5.8294H10.7019V11.6576C10.7019 12.731 11.5966 13.6003 12.7011 13.6003C13.8057 13.6003 14.7003 12.731 14.7003 11.6576V8.16068V8.15582V7.38359H15.5H22.2973C22.2973 7.38359 22.2973 7.38359 22.3023 7.38359H22.6971C24.9062 7.38359 26.6955 9.12233 26.6955 11.269V11.6576ZM16.2997 8.93777V11.6576C16.2997 13.5906 14.6903 15.1545 12.7011 15.1545C10.7119 15.1545 9.10258 13.5906 9.10258 11.6576V5.8974C7.3083 6.19852 5.81391 7.46615 5.30411 9.20975L4.47944 12.0073L0.820919 15.5625C-0.27364 16.6261 -0.27364 18.3454 0.820919 19.4091L4.72435 23.2023C5.8189 24.2659 7.58819 24.2659 8.68275 23.2023L10.567 21.3712C10.612 21.3712 10.657 21.3761 10.7019 21.3761H18.6987C20.0232 21.3761 21.0977 20.3319 21.0977 19.0448C21.0977 18.7728 21.0478 18.5106 20.9628 18.2677H21.0977C22.4222 18.2677 23.4968 17.2235 23.4968 15.9365C23.4968 15.3148 23.2469 14.7514 22.837 14.3337C24.1215 14.0909 25.0911 12.9932 25.0961 11.6722V11.6527C25.0911 10.1568 23.8416 8.94263 22.2973 8.94263H16.2997V8.93777Z" fill="black"/>
</svg>
