<svg width="19" height="25" viewBox="0 0 19 25" fill="none" xmlns="http://www.w3.org/2000/svg">
<path d="M3.47919 16.3477C3.1618 15.6543 3.14227 15.4541 3.84051 15.2197C5.09051 14.8291 4.23114 15.6689 5.94989 17.6221H5.96454V13.0371C6.02313 10.5859 8.11298 8.53516 10.735 8.53516C13.3669 8.53516 15.5056 10.6592 15.5056 13.2617C15.5056 16.3574 12.5368 18.7891 9.23114 17.8174C8.71844 17.6123 9.1286 16.2695 9.64618 16.4209C12.2341 16.4209 14.0114 15.9277 14.0114 13.2764C14.0114 10.2979 10.2468 8.90137 8.30341 11.0986C7.15594 12.3877 7.44403 13.1543 7.44403 18.7939C9.91962 20.3076 13.2204 19.8682 15.2761 17.8125C16.487 16.6016 17.1559 14.9805 17.1559 13.2715C17.1559 11.5527 16.4821 9.94141 15.2614 8.71582C14.0505 7.50488 12.4391 6.83594 10.7057 6.83594C8.97235 6.83594 7.34637 7.50977 6.14032 8.71582C6.12567 8.73047 5.35907 9.52148 5.10516 9.88281L5.08075 9.91211C4.91962 10.1416 4.77313 10.3564 4.0993 10.21C3.76239 10.127 3.40106 9.92676 3.40106 9.63379V0.512695C3.40106 0.268555 3.59149 0 3.91376 0H15.696C16.1013 0 16.1013 0.566406 16.1013 0.737305C16.1013 0.927734 16.1013 1.47461 15.696 1.47461H4.79755V7.96387H4.81219C9.90009 2.60254 18.6208 6.20605 18.6208 13.2812C18.6208 21.9775 6.66766 24.0381 3.47919 16.3477ZM6.57001 3.61328C6.54559 3.81836 6.79462 4.80957 7.2829 4.61914C13.3766 2.2998 17.1852 6.5918 17.5075 6.5918C17.7419 6.5918 18.6208 5.84473 18.2057 5.47852C13.655 1.13281 6.75555 2.69531 6.57001 3.61328ZM17.6247 19.7852C12.2536 25.1514 3.02508 22.7539 1.41376 14.6973C1.41376 14.1016 -0.0706182 14.3359 0.00262395 14.8584C1.1745 23.3252 12.0143 27.4023 18.6354 20.7813C18.9724 20.4004 18.0202 19.3945 17.6247 19.7852ZM8.86493 14.5068C8.86493 14.7021 9.07489 14.8633 9.13348 14.9219C9.27997 15.0684 9.43134 15.1367 9.54852 15.1367C9.73407 15.1367 9.67548 15.1465 10.6374 14.1846C11.5944 15.127 11.57 15.1367 11.7263 15.1367C11.9899 15.1367 12.6296 14.6289 12.2487 14.248L11.404 13.4033L12.2927 12.5146C12.6003 12.1826 11.7995 11.4502 11.5016 11.748L10.6276 12.6221C9.71942 11.7041 9.72919 11.6699 9.57782 11.6699C9.33368 11.6699 8.69891 12.2412 8.97235 12.5146L9.86102 13.4033C8.97723 14.2773 8.86493 14.3408 8.86493 14.5068Z" fill="black"/>
</svg>
