<svg width="32" height="26" viewBox="0 0 32 26" fill="none" xmlns="http://www.w3.org/2000/svg">
<path d="M8 1.2C8 0.535 8.535 0 9.2 0H14.8C15.465 0 16 0.535 16 1.2C16 1.865 15.465 2.4 14.8 2.4H14L19.2 9.6H25.02C25.405 9.6 25.785 9.67 26.145 9.805L31.25 11.72C31.7 11.89 32 12.32 32 12.8C32 13.28 31.7 13.71 31.25 13.88L26.145 15.795C25.785 15.93 25.405 16 25.02 16H19.2L14 23.2H14.8C15.465 23.2 16 23.735 16 24.4C16 25.065 15.465 25.6 14.8 25.6H9.2C8.535 25.6 8 25.065 8 24.4C8 23.735 8.535 23.2 9.2 23.2H9.6V16H8L5.27 18.73C4.97 19.03 4.565 19.2 4.14 19.2H3.2C2.315 19.2 1.6 18.485 1.6 17.6V14.4C0.715 14.4 0 13.685 0 12.8C0 11.915 0.715 11.2 1.6 11.2V8C1.6 7.115 2.315 6.4 3.2 6.4H4.135C4.56 6.4 4.965 6.57 5.265 6.87L8 9.6H9.6V2.4H9.2C8.535 2.4 8 1.865 8 1.2ZM4 12C3.56 12 3.2 12.36 3.2 12.8C3.2 13.24 3.56 13.6 4 13.6H7.2C7.64 13.6 8 13.24 8 12.8C8 12.36 7.64 12 7.2 12H4Z" fill="black"/>
</svg>
