<svg width="32" height="25" viewBox="0 0 32 25" fill="none" xmlns="http://www.w3.org/2000/svg">
<path d="M4.8 6.25C4.8 4.5924 5.47428 3.00269 6.67452 1.83058C7.87475 0.65848 9.50261 0 11.2 0C12.8974 0 14.5253 0.65848 15.7255 1.83058C16.9257 3.00269 17.6 4.5924 17.6 6.25C17.6 7.9076 16.9257 9.49732 15.7255 10.6694C14.5253 11.8415 12.8974 12.5 11.2 12.5C9.50261 12.5 7.87475 11.8415 6.67452 10.6694C5.47428 9.49732 4.8 7.9076 4.8 6.25ZM0 23.5498C0 18.7402 3.99 14.8438 8.915 14.8438H13.485C18.41 14.8438 22.4 18.7402 22.4 23.5498C22.4 24.3506 21.735 25 20.915 25H1.485C0.665 25 0 24.3506 0 23.5498ZM30.465 25H23.57C23.84 24.541 24 24.0088 24 23.4375V23.0469C24 20.083 22.645 17.4219 20.51 15.6348C20.63 15.6299 20.745 15.625 20.865 15.625H23.935C28.39 15.625 32 19.1504 32 23.501C32 24.3311 31.31 25 30.465 25ZM21.6 12.5C20.05 12.5 18.65 11.8848 17.635 10.8936C18.62 9.59473 19.2 7.98828 19.2 6.25C19.2 4.94141 18.87 3.70605 18.285 2.62207C19.215 1.95801 20.36 1.5625 21.6 1.5625C24.695 1.5625 27.2 4.00879 27.2 7.03125C27.2 10.0537 24.695 12.5 21.6 12.5Z" fill="black"/>
</svg>
