<svg width="26" height="25" viewBox="0 0 26 25" fill="none" xmlns="http://www.w3.org/2000/svg">
<path d="M4.8372 20.2302C4.89091 20.5085 4.7249 20.7722 4.44658 20.8308C4.1829 20.8845 3.91435 20.7185 3.86064 20.4402C3.80693 20.1765 3.97294 19.8982 4.23661 19.8396C4.50029 19.781 4.77861 19.9519 4.8372 20.2302ZM11.8245 23.7165C11.5169 23.9411 11.4339 24.3708 11.6438 24.6931C11.8684 25.0154 12.2981 25.0984 12.6204 24.8738C12.928 24.6491 13.011 24.2195 12.7864 23.8972C12.5813 23.5798 12.1468 23.4919 11.8245 23.7165ZM7.62529 1.14329C7.9329 1.07493 8.12822 0.767314 8.05986 0.459697C8.00615 0.137432 7.69853 -0.0578809 7.39091 0.0153613C7.08329 0.0837207 6.88798 0.391338 6.94657 0.698955C7.01493 1.02122 7.31767 1.21653 7.62529 1.14329ZM1.6829 11.0505C1.19462 10.7136 0.525677 10.8406 0.188762 11.3435C-0.148152 11.8318 -0.0211985 12.5154 0.467083 12.8523C0.955364 13.199 1.62431 13.0769 1.96122 12.574C2.29814 12.0661 2.17118 11.3972 1.6829 11.0505ZM14.9642 2.70579C15.4817 2.39817 15.6331 1.72923 15.3401 1.2263C15.0325 0.708721 14.3782 0.542705 13.8753 0.850322C13.3724 1.15794 13.2063 1.82688 13.514 2.34446C13.8069 2.84739 14.4612 3.01341 14.9642 2.70579ZM5.6331 5.53782C6.00908 5.27415 6.09208 4.75657 5.84306 4.3806C5.59404 4.00462 5.07646 3.92161 4.71513 4.17063C4.33915 4.43431 4.25615 4.95188 4.50517 5.32786C4.75419 5.70872 5.26689 5.79173 5.6331 5.53782ZM23.8118 13.155C23.4505 13.238 23.2112 13.5993 23.2942 13.9802C23.3626 14.3415 23.7288 14.5808 24.0901 14.4978C24.4515 14.4294 24.6907 14.0632 24.6077 13.6872C24.5345 13.3259 24.1731 13.0866 23.8118 13.155ZM25.7503 10.3816C25.6966 10.1033 25.428 9.93724 25.1643 9.99095C24.886 10.0447 24.72 10.3279 24.7737 10.6062C24.8274 10.8699 25.096 11.0505 25.3743 10.9968C25.638 10.9236 25.8186 10.6599 25.7503 10.3816ZM21.8294 6.78294C21.4095 7.07591 21.3118 7.6472 21.5901 8.06712C21.8685 8.48704 22.4397 8.5847 22.8597 8.30638C23.2649 8.01341 23.3626 7.44212 23.0843 7.0222C22.806 6.59739 22.2347 6.48997 21.8294 6.78294ZM21.5218 13.5896C22.806 15.6941 22.2591 18.4724 20.2376 19.8933C19.388 20.4939 18.4261 20.7575 17.4593 20.7283C16.8733 23.0281 14.0706 23.8825 12.3274 22.32C12.2737 22.364 12.2005 22.4031 12.1468 22.4616C10.2376 23.7849 7.63993 23.3113 6.31669 21.3728C5.84306 20.6745 5.6038 19.8786 5.57939 19.0827C2.38603 18.5505 1.18486 14.4929 3.57255 12.2615C2.19072 9.97142 3.60185 7.01731 6.17997 6.6511C7.40556 3.41868 11.4339 1.88548 14.1683 4.00462C17.4593 2.91575 20.8235 5.44017 20.5599 8.94114C22.5667 9.55638 23.138 12.2077 21.5218 13.5896ZM18.1038 17.2175C17.9524 16.2117 16.1067 16.9929 15.9993 15.8943C15.8479 14.3318 18.1331 10.9577 17.9524 9.64427C17.7864 8.47239 17.0052 8.22337 16.3216 8.20872C15.6673 8.19407 15.4964 8.30638 15.2767 8.43333C15.1351 8.51634 14.9544 8.67259 14.7054 8.41868C14.3977 8.12571 14.1634 7.84739 13.7581 7.7888C13.1575 7.69114 12.8938 7.88646 12.4593 8.26243C12.2933 8.40403 11.8733 8.89231 11.4827 8.70677C11.3167 8.62376 10.7308 8.33079 10.3108 8.15013C9.51493 7.80345 8.35771 8.37474 7.93779 9.12669C7.3079 10.2449 6.08232 14.6491 5.90165 15.2351C5.48173 16.5339 6.43388 17.6081 7.70341 17.5349C8.2454 17.5056 8.59697 17.3103 8.94365 16.6853C9.13896 16.324 10.9798 11.4265 11.1214 11.1872C11.219 11.0212 11.556 10.7966 11.8343 10.9382C12.1126 11.0896 12.1712 11.3972 12.1272 11.6755C12.0735 12.1492 10.7601 15.1374 10.7161 15.4695C10.5501 16.5876 12.0296 16.7683 12.6009 15.6648C12.7815 15.3181 14.8323 11.1433 15.013 10.865C15.2229 10.5574 15.3743 10.4597 15.5843 10.4743C15.7356 10.4743 15.9895 10.5183 15.931 11.0066C15.8626 11.4656 14.2171 14.5368 14.0315 15.2888C13.8069 16.2947 14.3538 17.3103 15.2474 17.7595C15.804 18.0378 18.2991 18.5261 18.1038 17.2175ZM18.3821 21.7243C17.8792 22.0857 17.7522 22.7986 18.1038 23.3161C18.4505 23.8337 19.1487 23.9558 19.6663 23.6091C20.1839 23.2478 20.306 22.5349 19.9593 22.0173C19.5979 21.4997 18.8997 21.3581 18.3821 21.7243Z" fill="black" fill-opacity="0.2"/>
</svg>
