<svg width="30" height="29" viewBox="0 0 30 29" fill="none" xmlns="http://www.w3.org/2000/svg">
<path d="M14.6611 20.9111L14.6667 20.9056L16.1333 21.6889L20.8667 24.2167L19.95 18.7944L19.6833 17.2L20.8333 16.0611L24.7278 12.2111L19.3889 11.4222L17.7611 11.1833L17.0444 9.70556L14.6667 4.82778L14.6611 4.84444V20.9111ZM24.3889 26.3722C24.5 27.0389 24.2222 27.7167 23.6722 28.1111C23.1222 28.5056 22.3944 28.5556 21.7944 28.2389L14.6667 24.4333L7.53889 28.2389C6.93889 28.5556 6.21112 28.5056 5.66112 28.1111C5.11112 27.7167 4.83334 27.0389 4.94445 26.3722L6.31667 18.2778L0.527783 12.55C0.0500051 12.0778 -0.122217 11.3722 0.0888941 10.7333C0.300005 10.0944 0.850005 9.62778 1.51667 9.52778L9.49445 8.35L13.0722 1C13.3722 0.388889 13.9889 0 14.6722 0C15.3556 0 15.9722 0.388889 16.2722 1L19.8444 8.35L27.8222 9.52778C28.4889 9.62778 29.0444 10.0944 29.25 10.7333C29.4556 11.3722 29.2889 12.0778 28.8111 12.55L23.0222 18.2778L24.3889 26.3722Z" fill="black"/>
</svg>
