<svg width="32" height="29" viewBox="0 0 32 29" fill="none" xmlns="http://www.w3.org/2000/svg">
<path d="M24.0016 13.3333C26.9461 13.3333 29.335 10.9444 29.335 8C29.335 5.05556 26.9461 2.66667 24.0016 2.66667C22.0294 2.66667 20.3016 3.73889 19.3794 5.33333H16.4572C17.5572 2.22778 20.5183 0 24.0016 0C28.4183 0 32.0016 3.58333 32.0016 8C32.0016 12.4167 28.4183 16 24.0016 16C22.4628 16 21.0294 15.5667 19.8072 14.8167L21.7739 12.85C22.4516 13.1611 23.2072 13.3333 24.0016 13.3333ZM0.101647 7.93333C0.307203 7.43333 0.796091 7.11111 1.33498 7.11111H21.7794C22.3183 7.11111 22.8072 7.43333 23.0128 7.93333C23.2183 8.43333 23.1072 9.00556 22.7239 9.38889L12.8905 19.2222V25.7778H16.4461C17.185 25.7778 17.7794 26.3722 17.7794 27.1111C17.7794 27.85 17.185 28.4444 16.4461 28.4444H11.5572H6.66831C5.92942 28.4444 5.33498 27.85 5.33498 27.1111C5.33498 26.3722 5.92942 25.7778 6.66831 25.7778H10.2239V19.2167L0.390536 9.38889C0.0072026 9.00556 -0.103909 8.43333 0.101647 7.93333Z" fill="black"/>
</svg>
