<svg width="89" height="86" viewBox="0 0 89 86" fill="none" xmlns="http://www.w3.org/2000/svg">
<path d="M16.7092 69.591C16.8948 70.5485 16.3213 71.4555 15.3599 71.657C14.4491 71.8418 13.5214 71.2707 13.3359 70.3133C13.1504 69.4063 13.7238 68.4489 14.6346 68.2473C15.5454 68.0458 16.5068 68.6336 16.7092 69.591ZM40.8457 81.5839C39.783 82.3565 39.4963 83.8346 40.2216 84.9432C40.9975 86.0518 42.4817 86.3373 43.5949 85.5647C44.6576 84.792 44.9443 83.3139 44.1684 82.2053C43.46 81.1136 41.9589 80.8112 40.8457 81.5839ZM26.3402 3.93287C27.4028 3.69772 28.0775 2.63953 27.8413 1.58134C27.6558 0.472759 26.5932 -0.199108 25.5306 0.0528422C24.468 0.287996 23.7933 1.34619 23.9957 2.40438C24.2318 3.51296 25.2776 4.18482 26.3402 3.93287ZM5.81329 38.0133C4.12661 36.8543 1.81586 37.2911 0.652046 39.0211C-0.511763 40.7008 -0.0732264 43.0523 1.61345 44.2113C3.30014 45.4038 5.61089 44.9839 6.7747 43.2539C7.93851 41.507 7.49997 39.2059 5.81329 38.0133ZM51.691 9.30781C53.4789 8.24962 54.0018 5.94847 52.9898 4.21842C51.9271 2.43797 49.667 1.86688 47.9297 2.92507C46.1924 3.98326 45.619 6.28441 46.6816 8.06485C47.6936 9.79491 49.9537 10.366 51.691 9.30781ZM19.4585 19.0499C20.7573 18.1429 21.044 16.3624 20.1838 15.0691C19.3236 13.7757 17.5357 13.4902 16.2876 14.3468C14.9888 15.2538 14.7021 17.0343 15.5623 18.3276C16.4225 19.6378 18.1935 19.9233 19.4585 19.0499ZM82.2537 45.2527C81.0055 45.5382 80.1791 46.7812 80.4658 48.0913C80.7019 49.3343 81.9669 50.1573 83.2151 49.8718C84.4632 49.6366 85.2897 48.3769 85.003 47.0835C84.75 45.8406 83.5018 45.0175 82.2537 45.2527ZM88.9498 35.7122C88.7643 34.7548 87.8366 34.1837 86.9258 34.3684C85.9644 34.5532 85.3909 35.5274 85.5764 36.4848C85.762 37.3918 86.6896 38.0133 87.651 37.8286C88.5619 37.5766 89.1859 36.6696 88.9498 35.7122ZM75.4057 23.333C73.9552 24.3408 73.6179 26.306 74.5793 27.7506C75.5407 29.1951 77.5141 29.531 78.9646 28.5736C80.3646 27.5658 80.7019 25.6006 79.7405 24.1561C78.7791 22.6948 76.8057 22.3252 75.4057 23.333ZM74.3431 46.7476C78.7791 53.9869 76.89 63.5442 69.9072 68.4321C66.9723 70.4981 63.6496 71.4051 60.31 71.3043C58.2859 79.2155 48.6044 82.155 42.5829 76.78C42.3974 76.9312 42.1444 77.0656 41.9589 77.2671C35.3639 81.819 26.3908 80.1898 21.8199 73.5215C20.1838 71.1196 19.3573 68.3817 19.273 65.6438C8.24211 63.813 4.09288 49.855 12.3407 42.1789C7.56744 34.3013 12.4419 24.1393 21.3476 22.8795C25.5812 11.7601 39.4963 6.48597 48.9417 13.7757C60.31 10.0301 71.9312 18.7139 71.0204 30.7572C77.9526 32.8735 79.9261 41.9941 74.3431 46.7476ZM62.5364 59.2275C62.0135 55.7674 55.6378 58.4549 55.2668 54.6756C54.7439 49.3007 62.6376 37.6942 62.0135 33.1759C61.44 29.1447 58.7413 28.288 56.38 28.2377C54.1198 28.1873 53.5295 28.5736 52.7705 29.0103C52.2813 29.2958 51.6573 29.8333 50.7971 28.9599C49.7345 27.9521 48.9249 26.9947 47.5249 26.7931C45.4503 26.4572 44.5395 27.1291 43.0383 28.4224C42.4649 28.9095 41.0143 30.5892 39.665 29.9509C39.0915 29.6654 37.0675 28.6576 35.6169 28.0361C32.8677 26.8435 28.8702 28.8087 27.4197 31.3954C25.2439 35.2419 21.0103 50.3925 20.3862 52.4081C18.9357 56.876 22.2247 60.5712 26.6101 60.3193C28.4823 60.2185 29.6967 59.5466 30.8942 57.3967C31.5689 56.1537 37.9277 39.3067 38.4168 38.4836C38.7542 37.9125 39.918 37.1399 40.8794 37.627C41.8408 38.1477 42.0432 39.2059 41.8914 40.1633C41.7059 41.7926 37.1687 52.0721 37.0169 53.2143C36.4434 57.0607 41.5541 57.6822 43.5275 53.8862C44.1515 52.6936 51.2356 38.3325 51.8597 37.375C52.585 36.3169 53.1078 35.9809 53.8331 36.0313C54.356 36.0313 55.233 36.1825 55.0306 37.8621C54.7945 39.441 49.1104 50.0061 48.4694 52.5928C47.6936 56.0529 49.5827 59.5466 52.6693 61.0919C54.5921 62.0493 63.211 63.729 62.5364 59.2275ZM63.4978 74.7308C61.7605 75.9738 61.322 78.4261 62.5364 80.2065C63.7339 81.987 66.1459 82.4069 67.9338 81.2143C69.7216 79.9714 70.1433 77.5191 68.9458 75.7386C67.6976 73.9582 65.2857 73.4711 63.4978 74.7308Z" fill="black" fill-opacity="0.2"/>
</svg>
