<svg width="75" height="61" viewBox="0 0 75 61" fill="none" xmlns="http://www.w3.org/2000/svg">
<path d="M53.0031 20.7641V20.9688C53.0031 34.4646 41.4787 44.5979 27.8077 46.0673C30.8016 54.3917 39.8571 60.5 50.628 60.5C55.0273 60.5 59.1342 59.4814 62.6737 57.7056L62.9069 57.5886L63.1363 57.713C63.9958 58.179 64.9721 58.6346 66.0301 59.0439C68.1399 59.8526 70.6552 60.5 73.1288 60.5C73.7154 60.5 74.2511 60.1091 74.4329 59.5282C74.6171 58.9396 74.4134 58.3045 73.9318 57.946L73.9009 57.923L73.8739 57.8955L73.8736 57.8952C73.8511 57.88 73.8093 57.8518 73.7625 57.8137L73.7613 57.8127C73.6426 57.7161 73.4551 57.5636 73.2306 57.3483C72.7979 56.9449 72.2034 56.3531 71.6191 55.586M53.0031 20.7641L27.2951 46.1182C30.3274 54.7323 39.6308 61 50.628 61C55.1047 61 59.2884 59.9635 62.8979 58.1525C63.7769 58.6291 64.773 59.0938 65.8512 59.5107C67.9958 60.3328 70.574 61 73.1288 61C73.9374 61 74.664 60.4639 74.9101 59.6775C75.1562 58.8912 74.8866 58.0334 74.2304 57.5449L74.2069 57.5211C74.1952 57.5092 74.1776 57.4973 74.1557 57.4824C74.1337 57.4675 74.1073 57.4496 74.078 57.4258L74.0779 57.4257C73.9607 57.3304 73.785 57.1874 73.5741 56.985C73.1522 56.5918 72.578 56.0199 72.0154 55.2812C71.3709 54.4473 70.7615 53.4465 70.3513 52.3385C73.2694 48.8834 74.9921 44.6301 74.9921 40.0193C74.9921 29.1107 65.3065 20.139 52.9252 19.1461C52.9375 19.3134 52.9482 19.4816 52.9571 19.6503M53.0031 20.7641L52.9905 20.7513M53.0031 20.7641L52.9905 20.7513M71.6191 55.586C71.6186 55.5854 71.6181 55.5848 71.6177 55.5842L72.0152 55.2814L71.6198 55.587C71.6196 55.5867 71.6193 55.5864 71.6191 55.586ZM71.6191 55.586C70.9511 54.7216 70.3137 53.6771 69.8824 52.5121L69.7812 52.2386L69.9693 52.0159C72.8187 48.6422 74.4921 44.5009 74.4921 40.0193C74.4921 29.4541 65.1091 20.6557 52.9571 19.6503M52.9571 19.6503C52.79 19.6365 52.6224 19.6241 52.4543 19.6133L52.8478 20.6062L52.8595 20.6181L52.9905 20.7513M52.9571 19.6503C52.9763 20.0154 52.9875 20.3832 52.9905 20.7513M5.11157 33.4598L5.21125 33.1877L5.0246 32.9659C2.17454 29.5797 0.501283 25.4381 0.501283 20.9688C0.501283 9.73238 11.1147 0.5 24.3771 0.5C37.6395 0.5 48.2529 9.73238 48.2529 20.9688C48.2529 32.2051 37.6395 41.4375 24.3771 41.4375C19.9777 41.4375 15.871 40.4189 12.3437 38.6434L12.1103 38.5259L11.8806 38.6505C11.0223 39.1158 10.0345 39.5715 8.97497 39.9814C6.86521 40.7901 4.34991 41.4375 1.87635 41.4375C1.29792 41.4375 0.764085 41.0418 0.569436 40.4571C0.381363 39.8922 0.585904 39.2559 1.06503 38.8928L1.094 38.8709L1.10386 38.8608C1.11749 38.8513 1.1287 38.843 1.13658 38.8371C1.1667 38.8147 1.19924 38.7888 1.23086 38.7631C1.35921 38.6587 1.54361 38.4959 1.75453 38.3053L1.75457 38.3054L1.76018 38.3002C2.19318 37.8966 2.789 37.3038 3.37462 36.5351C4.04146 35.672 4.67971 34.639 5.11157 33.4598Z" fill="white" stroke="black"/>
</svg>
