<svg width="51" height="49" viewBox="0 0 51 49" fill="none" xmlns="http://www.w3.org/2000/svg">
<path d="M9.57496 39.6507C9.68128 40.1962 9.35266 40.713 8.80174 40.8278C8.27982 40.9331 7.74823 40.6077 7.64191 40.0622C7.5356 39.5454 7.86421 38.9999 8.38614 38.8851C8.90806 38.7703 9.45898 39.1052 9.57496 39.6507ZM23.4059 46.4838C22.797 46.9241 22.6327 47.7662 23.0483 48.3979C23.4929 49.0295 24.3435 49.1922 24.9814 48.752C25.5903 48.3117 25.7546 47.4696 25.31 46.8379C24.9041 46.2159 24.0438 46.0436 23.4059 46.4838ZM15.0938 2.24082C15.7027 2.10684 16.0893 1.50392 15.954 0.900996C15.8477 0.269363 15.2388 -0.113445 14.6299 0.0301078C14.021 0.16409 13.6344 0.767013 13.7504 1.36994C13.8857 2.00157 14.4849 2.38438 15.0938 2.24082ZM3.33121 21.6587C2.36469 20.9984 1.04055 21.2472 0.373645 22.233C-0.293258 23.19 -0.0419612 24.5298 0.924564 25.1901C1.89109 25.8696 3.21523 25.6304 3.88213 24.6446C4.54903 23.6493 4.29774 22.3382 3.33121 21.6587ZM29.6207 5.30329C30.6452 4.70036 30.9448 3.38925 30.3649 2.40352C29.756 1.38908 28.4609 1.06369 27.4653 1.66661C26.4698 2.26953 26.1412 3.58065 26.7501 4.59509C27.33 5.58082 28.6252 5.90621 29.6207 5.30329ZM11.1504 10.854C11.8946 10.3372 12.0589 9.32277 11.566 8.58586C11.0731 7.84896 10.0486 7.68626 9.33333 8.17434C8.58911 8.69113 8.4248 9.70557 8.91773 10.4425C9.41065 11.189 10.4255 11.3516 11.1504 10.854ZM47.1341 25.7835C46.4189 25.9462 45.9453 26.6544 46.1096 27.4009C46.2449 28.1091 46.9698 28.578 47.685 28.4153C48.4003 28.2813 48.8739 27.5636 48.7096 26.8267C48.5646 26.1185 47.8494 25.6495 47.1341 25.7835ZM50.9712 20.3476C50.8649 19.8021 50.3333 19.4767 49.8114 19.582C49.2605 19.6873 48.9319 20.2424 49.0382 20.7879C49.1445 21.3047 49.6761 21.6587 50.227 21.5535C50.7489 21.4099 51.1065 20.8931 50.9712 20.3476ZM43.21 13.2944C42.3788 13.8686 42.1855 14.9883 42.7364 15.8114C43.2874 16.6344 44.4182 16.8258 45.2494 16.2803C46.0516 15.7061 46.2449 14.5864 45.694 13.7633C45.1431 12.9307 44.0123 12.7202 43.21 13.2944ZM42.6011 26.6352C45.1431 30.76 44.0606 36.2054 40.0592 38.9904C38.3774 40.1675 36.4734 40.6843 34.5596 40.6269C33.3998 45.1344 27.852 46.8092 24.4015 43.7468C24.2951 43.8329 24.1502 43.9094 24.0438 44.0243C20.2647 46.6178 15.1228 45.6895 12.5035 41.8901C11.566 40.5216 11.0924 38.9617 11.0441 37.4017C4.72301 36.3586 2.34536 28.4057 7.07166 24.0322C4.3364 19.5437 7.12966 13.7538 12.2329 13.036C14.6589 6.70053 22.6327 3.69549 28.0453 7.84896C34.5596 5.7148 41.219 10.6626 40.6971 17.5244C44.6695 18.7303 45.8003 23.9269 42.6011 26.6352ZM35.8355 33.7459C35.5358 31.7744 31.8824 33.3057 31.6697 31.1524C31.3701 28.0899 35.8934 21.4769 35.5358 18.9025C35.2072 16.6057 33.6608 16.1176 32.3076 16.0889C31.0125 16.0602 30.6742 16.2803 30.2393 16.5291C29.959 16.6918 29.6014 16.9981 29.1084 16.5004C28.4995 15.9262 28.0356 15.3807 27.2334 15.2659C26.0446 15.0745 25.5226 15.4573 24.6624 16.1942C24.3338 16.4717 23.5026 17.4287 22.7294 17.0651C22.4008 16.9024 21.2409 16.3281 20.4097 15.9741C18.8343 15.2946 16.5436 16.4143 15.7124 17.8881C14.4656 20.0797 12.0396 28.712 11.682 29.8604C10.8508 32.4061 12.7355 34.5115 15.2485 34.368C16.3213 34.3105 17.0172 33.9277 17.7034 32.7028C18.0901 31.9946 21.7338 22.3957 22.0141 21.9267C22.2074 21.6013 22.8743 21.1611 23.4253 21.4386C23.9762 21.7353 24.0922 22.3382 24.0052 22.8837C23.8989 23.812 21.2989 29.669 21.2119 30.3198C20.8833 32.5113 23.8119 32.8654 24.9427 30.7026C25.3003 30.0231 29.3597 21.8406 29.7173 21.2951C30.133 20.6922 30.4326 20.5008 30.8482 20.5295C31.1478 20.5295 31.6504 20.6156 31.5344 21.5726C31.3991 22.4722 28.1419 28.4919 27.7746 29.9657C27.33 31.9371 28.4125 33.9277 30.1813 34.8082C31.2831 35.3537 36.2221 36.3107 35.8355 33.7459ZM36.3864 42.5792C35.3908 43.2874 35.1396 44.6846 35.8355 45.6991C36.5217 46.7135 37.9038 46.9528 38.9283 46.2733C39.9528 45.5651 40.1945 44.1678 39.5082 43.1534C38.793 42.139 37.4109 41.8614 36.3864 42.5792Z" fill="#248714"/>
</svg>
