<svg width="35" height="34" viewBox="0 0 35 34" fill="none" xmlns="http://www.w3.org/2000/svg">
<path d="M6.57105 27.5127C6.64402 27.8913 6.41849 28.2498 6.04041 28.3295C5.68223 28.4026 5.31741 28.1768 5.24445 27.7983C5.17149 27.4397 5.39701 27.0612 5.75519 26.9815C6.11337 26.9018 6.49146 27.1342 6.57105 27.5127ZM16.0629 32.2541C15.645 32.5596 15.5323 33.1439 15.8175 33.5822C16.1226 34.0205 16.7063 34.1334 17.1441 33.8279C17.562 33.5224 17.6747 32.9381 17.3696 32.4998C17.091 32.0682 16.5007 31.9486 16.0629 32.2541ZM10.3585 1.55486C10.7764 1.46189 11.0417 1.04353 10.9488 0.625181C10.8759 0.186905 10.458 -0.078717 10.0401 0.0208911C9.62224 0.113859 9.35692 0.532213 9.43651 0.950567C9.52938 1.38884 9.94062 1.65446 10.3585 1.55486ZM2.28613 15.0285C1.62282 14.5703 0.714101 14.743 0.256423 15.427C-0.201255 16.091 -0.0287969 17.0207 0.634505 17.4789C1.29781 17.9504 2.20653 17.7843 2.66421 17.1004C3.12188 16.4098 2.94943 15.5 2.28613 15.0285ZM20.3279 3.67983C21.031 3.26148 21.2366 2.35172 20.8387 1.66775C20.4208 0.963848 19.532 0.73807 18.8488 1.15642C18.1656 1.57478 17.94 2.48453 18.3579 3.18843C18.7559 3.87241 19.6447 4.09818 20.3279 3.67983ZM7.65223 7.53135C8.16298 7.17276 8.27574 6.46886 7.93745 5.95754C7.59917 5.44622 6.89607 5.33333 6.40523 5.67199C5.89449 6.03058 5.78172 6.73448 6.12001 7.2458C6.45829 7.76376 7.15476 7.87665 7.65223 7.53135ZM32.3469 17.8906C31.8561 18.0035 31.5311 18.4949 31.6438 19.0128C31.7367 19.5042 32.2342 19.8296 32.725 19.7167C33.2159 19.6238 33.5409 19.1257 33.4281 18.6144C33.3286 18.123 32.8378 17.7976 32.3469 17.8906ZM34.9803 14.1188C34.9073 13.7403 34.5425 13.5145 34.1843 13.5875C33.8062 13.6606 33.5807 14.0457 33.6537 14.4242C33.7266 14.7828 34.0914 15.0285 34.4695 14.9555C34.8277 14.8559 35.0731 14.4973 34.9803 14.1188ZM29.6539 9.22468C29.0835 9.62312 28.9508 10.4001 29.3289 10.9711C29.707 11.5422 30.4831 11.675 31.0535 11.2965C31.604 10.8981 31.7367 10.1212 31.3586 9.55007C30.9805 8.97234 30.2045 8.82625 29.6539 9.22468ZM29.2361 18.4816C30.9805 21.3437 30.2376 25.1221 27.4916 27.0545C26.3374 27.8713 25.0307 28.2299 23.7174 28.1901C22.9214 31.3178 19.1141 32.4799 16.7461 30.3549C16.6731 30.4147 16.5736 30.4678 16.5007 30.5475C13.9072 32.3471 10.3784 31.7029 8.58086 29.0666C7.93745 28.117 7.61244 27.0346 7.57927 25.9522C3.24128 25.2284 1.60956 19.7101 4.8531 16.6754C2.97596 13.561 4.8929 9.54343 8.39513 9.04539C10.06 4.64935 15.5323 2.56422 19.2467 5.44622C23.7174 3.96537 28.2875 7.39854 27.9294 12.1598C30.6555 12.9965 31.4316 16.6023 29.2361 18.4816ZM24.593 23.4155C24.3873 22.0476 21.8801 23.1101 21.7341 21.6159C21.5285 19.491 24.6328 14.9023 24.3873 13.116C24.1618 11.5223 23.1005 11.1836 22.1719 11.1637C21.2831 11.1438 21.0509 11.2965 20.7524 11.4692C20.5601 11.5821 20.3147 11.7946 19.9764 11.4493C19.5585 11.0508 19.2401 10.6723 18.6896 10.5926C17.8737 10.4598 17.5155 10.7254 16.9252 11.2368C16.6997 11.4293 16.1292 12.0934 15.5986 11.8411C15.3731 11.7282 14.5771 11.3297 14.0067 11.084C12.9255 10.6126 11.3535 11.3895 10.783 12.4121C9.92736 13.9328 8.26247 19.9226 8.01705 20.7195C7.44661 22.4858 8.74005 23.9468 10.4646 23.8472C11.2009 23.8073 11.6785 23.5417 12.1494 22.6917C12.4147 22.2003 14.9154 15.5398 15.1077 15.2145C15.2404 14.9887 15.6981 14.6832 16.0762 14.8758C16.4542 15.0816 16.5338 15.5 16.4741 15.8785C16.4012 16.5226 14.6169 20.5867 14.5572 21.0382C14.3317 22.5589 16.3415 22.8046 17.1175 21.3038C17.363 20.8324 20.1488 15.1547 20.3943 14.7762C20.6795 14.3578 20.8851 14.225 21.1703 14.2449C21.3759 14.2449 21.7209 14.3047 21.6413 14.9688C21.5484 15.593 19.3131 19.7699 19.061 20.7925C18.7559 22.1605 19.4988 23.5417 20.7126 24.1526C21.4688 24.5311 24.8583 25.1952 24.593 23.4155ZM24.971 29.5447C24.2878 30.0361 24.1154 31.0057 24.593 31.7096C25.0639 32.4135 26.0124 32.5795 26.7155 32.108C27.4186 31.6166 27.5844 30.6471 27.1135 29.9432C26.6227 29.2393 25.6741 29.0467 24.971 29.5447Z" fill="black"/>
</svg>
