<svg width="53" height="43" viewBox="0 0 53 43" fill="none" xmlns="http://www.w3.org/2000/svg">
<path d="M11.925 0C13.6821 0 15.3672 0.707866 16.6096 1.96788C17.852 3.22789 18.55 4.93683 18.55 6.71875C18.55 8.50067 17.852 10.2096 16.6096 11.4696C15.3672 12.7296 13.6821 13.4375 11.925 13.4375C10.1679 13.4375 8.48285 12.7296 7.24042 11.4696C5.99799 10.2096 5.3 8.50067 5.3 6.71875C5.3 4.93683 5.99799 3.22789 7.24042 1.96788C8.48285 0.707866 10.1679 0 11.925 0ZM42.4 0C44.1571 0 45.8422 0.707866 47.0846 1.96788C48.327 3.22789 49.025 4.93683 49.025 6.71875C49.025 8.50067 48.327 10.2096 47.0846 11.4696C45.8422 12.7296 44.1571 13.4375 42.4 13.4375C40.6429 13.4375 38.9578 12.7296 37.7154 11.4696C36.473 10.2096 35.775 8.50067 35.775 6.71875C35.775 4.93683 36.473 3.22789 37.7154 1.96788C38.9578 0.707866 40.6429 0 42.4 0ZM0 25.0861C0 20.1395 3.95844 16.125 8.83609 16.125H12.3722C13.6889 16.125 14.9394 16.4189 16.0656 16.9396C15.958 17.5443 15.9083 18.1742 15.9083 18.8125C15.9083 22.0207 17.2995 24.9014 19.4941 26.875C19.4775 26.875 19.4609 26.875 19.4361 26.875H1.76391C0.795 26.875 0 26.0688 0 25.0861ZM33.5639 26.875C33.5473 26.875 33.5308 26.875 33.5059 26.875C35.7088 24.9014 37.0917 22.0207 37.0917 18.8125C37.0917 18.1742 37.0338 17.5527 36.9344 16.9396C38.0606 16.4105 39.3111 16.125 40.6278 16.125H44.1639C49.0416 16.125 53 20.1395 53 25.0861C53 26.0771 52.205 26.875 51.2361 26.875H33.5639ZM18.55 18.8125C18.55 16.6742 19.3876 14.6235 20.8785 13.1115C22.3694 11.5994 24.3915 10.75 26.5 10.75C28.6085 10.75 30.6306 11.5994 32.1215 13.1115C33.6124 14.6235 34.45 16.6742 34.45 18.8125C34.45 20.9508 33.6124 23.0015 32.1215 24.5135C30.6306 26.0256 28.6085 26.875 26.5 26.875C24.3915 26.875 22.3694 26.0256 20.8785 24.5135C19.3876 23.0015 18.55 20.9508 18.55 18.8125ZM10.6 40.7576C10.6 34.5764 15.5439 29.5625 21.6389 29.5625H31.3611C37.4561 29.5625 42.4 34.5764 42.4 40.7576C42.4 41.9922 41.4145 43 40.1889 43H12.8111C11.5938 43 10.6 42.0006 10.6 40.7576Z" fill="#248714"/>
</svg>
