<svg width="32" height="28" viewBox="0 0 32 28" fill="none" xmlns="http://www.w3.org/2000/svg">
<path d="M16.1528 2.65221L20.5076 4.27635L15.9972 5.98252L11.4869 4.27635L15.8417 2.65221C15.9417 2.61393 16.0528 2.61393 16.1583 2.65221H16.1528ZM7.55424 5.05288V11.1885C7.48203 11.2104 7.40983 11.2323 7.33762 11.2596L2.00521 13.2501C0.799861 13.6985 0 14.8415 0 16.1102V22.6286C0 23.8426 0.727652 24.9418 1.86079 25.4339L7.1932 27.7416C7.99306 28.0861 8.89846 28.0861 9.69832 27.7416L15.9972 25.0128L22.3017 27.7416C23.1015 28.0861 24.0069 28.0861 24.8068 27.7416L30.1392 25.4339C31.2668 24.9472 32 23.8426 32 22.6286V16.1102C32 14.836 31.2001 13.6985 29.9948 13.2447L24.6624 11.2541C24.5902 11.2268 24.518 11.2049 24.4458 11.183V5.05288C24.4458 3.77872 23.6459 2.64128 22.4405 2.18739L17.1081 0.196865C16.3972 -0.0656218 15.614 -0.0656218 14.903 0.196865L9.57056 2.18739C8.35411 2.64128 7.55424 3.78419 7.55424 5.05288ZM21.774 11.5112L17.197 13.2173V8.33944L21.774 6.6114V11.5112ZM8.59851 13.715L12.9533 15.3391L8.44298 17.0398L3.93265 15.3391L8.28745 13.715C8.38743 13.6767 8.49852 13.6767 8.60406 13.715H8.59851ZM9.64277 24.8925V19.3967L14.2198 17.6687V22.9129L9.64277 24.8925ZM23.3959 13.715C23.4959 13.6767 23.607 13.6767 23.7126 13.715L28.0674 15.3391L23.5515 17.0398L19.0411 15.3391L23.3959 13.715ZM29.0616 23.0278L24.7513 24.8925V19.3967L29.3282 17.6687V22.6286C29.3282 22.8036 29.2227 22.9567 29.0616 23.0278Z" fill="black"/>
</svg>
