<svg width="63" height="54" viewBox="0 0 63 54" fill="none" xmlns="http://www.w3.org/2000/svg">
<g filter="url(#filter0_d_3_352)">
<path d="M9.11328 27.1314L28.5244 44.8549C29.3301 45.5903 30.3936 46 31.5 46C32.6064 46 33.6699 45.5903 34.4756 44.8549L53.8867 27.1314C57.1523 24.1582 59 19.9874 59 15.6274V15.0181C59 7.67447 53.5752 1.41295 46.1738 0.204771C41.2754 -0.593678 36.291 0.971702 32.7891 4.39663L31.5 5.65733L30.2109 4.39663C26.709 0.971702 21.7246 -0.593678 16.8262 0.204771C9.4248 1.41295 4 7.67447 4 15.0181V15.6274C4 19.9874 5.84766 24.1582 9.11328 27.1314Z" fill="#FF0000"/>
</g>
<defs>
<filter id="filter0_d_3_352" x="0" y="0" width="63" height="54" filterUnits="userSpaceOnUse" color-interpolation-filters="sRGB">
<feFlood flood-opacity="0" result="BackgroundImageFix"/>
<feColorMatrix in="SourceAlpha" type="matrix" values="0 0 0 0 0 0 0 0 0 0 0 0 0 0 0 0 0 0 127 0" result="hardAlpha"/>
<feOffset dy="4"/>
<feGaussianBlur stdDeviation="2"/>
<feComposite in2="hardAlpha" operator="out"/>
<feColorMatrix type="matrix" values="0 0 0 0 0 0 0 0 0 0 0 0 0 0 0 0 0 0 0.25 0"/>
<feBlend mode="normal" in2="BackgroundImageFix" result="effect1_dropShadow_3_352"/>
<feBlend mode="normal" in="SourceGraphic" in2="effect1_dropShadow_3_352" result="shape"/>
</filter>
</defs>
</svg>
